<?xml version="1.0" encoding="utf-8"?>
<!-- Generator: Adobe Illustrator 19.0.0, SVG Export Plug-In . SVG Version: 6.00 Build 0)  -->
<svg version="1.1" id="Layer_1" xmlns="http://www.w3.org/2000/svg" xmlns:xlink="http://www.w3.org/1999/xlink" x="0px" y="0px"
	 viewBox="0 0 106 83.3" style="enable-background:new 0 0 106 83.3;" xml:space="preserve">
<g>
	<path id="XMLID_5_" style="fill:#FFFFFF;" d="M53,23.7C40,23.7,29.3,13,29.3,0h17c0,3.7,3,6.6,6.6,6.6V23.7z"/>
</g>
<g>
	<path id="XMLID_4_" style="fill:#FFFFFF;" d="M106,83.3H83.3C83.3,66.6,69.7,53,53,53C23.8,53,0,29.2,0,0h22.7
		c0,16.7,13.6,30.3,30.3,30.3C82.2,30.3,106,54.1,106,83.3z"/>
</g>
<g>
	<path id="XMLID_3_" style="fill:#FFFFFF;" d="M76.7,83.3h-17c0-3.7-3-6.6-6.6-6.6v-17C66.1,59.6,76.7,70.3,76.7,83.3z"/>
</g>
</svg>
