<?xml version="1.0" encoding="utf-8"?>
<!-- Generator: Adobe Illustrator 19.0.0, SVG Export Plug-In . SVG Version: 6.00 Build 0)  -->
<svg version="1.1" id="Layer_1" xmlns="http://www.w3.org/2000/svg" xmlns:xlink="http://www.w3.org/1999/xlink" x="0px" y="0px"
	 viewBox="-139.9 148 474.6 237" style="enable-background:new -139.9 148 474.6 237;" xml:space="preserve">
<polyline id="XMLID_16_" style="fill:none;stroke:#FFFFFF;stroke-width:2;stroke-miterlimit:10;" points="-105.5,316 -112.6,258.3 
	-105.6,257.4 -98.4,316 "/>
<path id="XMLID_51_" style="fill:none;stroke:#FFFFFF;stroke-width:2;stroke-miterlimit:10;" d="M-113.3,294.5l-3.6-29.2
	c-0.3-2.7,1.6-5.2,4.3-5.5l0,0"/>
<path id="XMLID_45_" style="fill:none;stroke:#FFFFFF;stroke-width:2;stroke-miterlimit:10;" d="M-99.1,297.1l-10.2,1.3l-5.2-42.4
	c-0.2-1.9,1.1-3.6,3-3.8l3.4-0.4c1.9-0.2,3.6,1.1,3.8,3L-99.1,297.1z"/>
<path id="XMLID_14_" style="fill:none;stroke:#FFFFFF;stroke-width:2;stroke-miterlimit:10;" d="M114.5,342.3
	c0,30.5-79.2,21.1-107.4,41.8"/>
<path id="XMLID_2_" style="fill:none;stroke:#FFFFFF;stroke-width:2;stroke-miterlimit:10;" d="M302.7,342h31V149H41.2
	c-0.3,0-0.5,0.2-0.5,0.5v192c0,0.3,0.2,0.5,0.5,0.5h137.5v26h-53.2c-2.5,0-4.6,2-4.6,4.6V384h133v-11.4c0-2.5-2-4.6-4.6-4.6h-53.7
	v-26h44"/>
<polyline id="XMLID_12_" style="fill:none;stroke:#FFFFFF;stroke-width:2;stroke-miterlimit:10;" points="240.1,325.8 55.7,325.8 
	55.7,165 319.2,165 319.2,325.8 303,325.8 "/>
<circle id="XMLID_3_" style="fill:none;stroke:#FFFFFF;stroke-width:2;stroke-miterlimit:10;" cx="87.7" cy="221.9" r="12.8"/>
<path id="XMLID_4_" style="fill:none;stroke:#FFFFFF;stroke-width:2;stroke-miterlimit:10;" d="M253.4,187.3h-132
	c-3.1,0-5.6-2.5-5.6-5.6v-0.3c0-3.1,2.5-5.6,5.6-5.6h132c3.1,0,5.6,2.5,5.6,5.6v0.3C259,184.7,256.5,187.3,253.4,187.3z"/>
<rect id="XMLID_5_" x="114.5" y="215.9" style="fill:none;stroke:#FFFFFF;stroke-miterlimit:10;" width="47.4" height="11.5"/>
<rect id="XMLID_6_" x="114.5" y="234.8" style="fill:none;stroke:#FFFFFF;stroke-miterlimit:10;" width="73" height="11.5"/>
<rect id="XMLID_34_" x="114.5" y="254.5" style="fill:none;stroke:#FFFFFF;stroke-miterlimit:10;" width="59.7" height="11.5"/>
<rect id="XMLID_35_" x="174.2" y="215.9" style="fill:none;stroke:#FFFFFF;stroke-miterlimit:10;" width="34.5" height="11.5"/>
<path id="XMLID_7_" style="fill:none;stroke:#FFFFFF;stroke-width:2;stroke-miterlimit:10;" d="M294.1,356h-45c-4.9,0-9-4-9-9v-89.4
	c0-4.9,4-9,9-9h45c4.9,0,9,4,9,9V347C303,352,299,356,294.1,356z"/>
<line id="XMLID_9_" style="fill:none;stroke:#FFFFFF;stroke-width:2;stroke-miterlimit:10;" x1="240.7" y1="340" x2="302.7" y2="340"/>
<circle id="XMLID_11_" style="fill:none;stroke:#FFFFFF;stroke-width:2;stroke-miterlimit:10;" cx="271.9" cy="348" r="2.9"/>
<line id="XMLID_8_" style="fill:none;stroke:#FFFFFF;stroke-miterlimit:10;" x1="281.7" y1="348.5" x2="296.7" y2="348.5"/>
<line id="XMLID_10_" style="fill:none;stroke:#FFFFFF;stroke-miterlimit:10;" x1="247.7" y1="348.5" x2="262.7" y2="348.5"/>
<line id="XMLID_26_" style="fill:none;stroke:#FFFFFF;stroke-width:2;stroke-miterlimit:10;" x1="255.7" y1="315" x2="279.7" y2="315"/>
<line id="XMLID_27_" style="fill:none;stroke:#FFFFFF;stroke-width:2;stroke-miterlimit:10;" x1="255.7" y1="322" x2="288.7" y2="322"/>
<line id="XMLID_28_" style="fill:none;stroke:#FFFFFF;stroke-width:2;stroke-miterlimit:10;" x1="255.7" y1="327" x2="267.7" y2="327"/>
<circle id="XMLID_25_" style="fill:none;stroke:#FFFFFF;stroke-width:2;stroke-miterlimit:10;" cx="271.9" cy="286" r="14.3"/>
<line id="XMLID_29_" style="fill:none;stroke:#FFFFFF;stroke-width:2;stroke-miterlimit:10;" x1="282.7" y1="315" x2="288.7" y2="315"/>
<line id="XMLID_30_" style="fill:none;stroke:#FFFFFF;stroke-width:2;stroke-miterlimit:10;" x1="271.7" y1="327" x2="275.7" y2="327"/>
<line id="XMLID_31_" style="fill:none;stroke:#FFFFFF;stroke-width:2;stroke-miterlimit:10;" x1="240.7" y1="257" x2="302.7" y2="257"/>
<line id="XMLID_32_" style="fill:none;stroke:#FFFFFF;stroke-width:2;stroke-miterlimit:10;" x1="268.7" y1="253" x2="278.7" y2="253"/>
<line id="XMLID_33_" style="fill:none;stroke:#FFFFFF;stroke-width:2;stroke-miterlimit:10;" x1="265.7" y1="253" x2="267.7" y2="253"/>
<circle id="XMLID_43_" style="fill:none;stroke:#FFFFFF;stroke-miterlimit:10;" cx="187.5" cy="335.5" r="3.7"/>
<line id="XMLID_18_" style="fill:none;stroke:#FFFFFF;stroke-width:2;stroke-miterlimit:10;" x1="-126.3" y1="316" x2="-137.3" y2="288.9"/>
<line id="XMLID_15_" style="fill:none;stroke:#FFFFFF;stroke-width:2;stroke-miterlimit:10;" x1="-127.5" y1="284.9" x2="-115.1" y2="316"/>
<polygon id="XMLID_47_" style="fill:none;stroke:#FFFFFF;stroke-width:2;stroke-miterlimit:10;" points="-132.1,287 -134.4,289.2 
	-137.3,288.9 -138.7,271.1 -127.4,285 -128.8,287 "/>
<line id="XMLID_48_" style="fill:none;stroke:#FFFFFF;stroke-miterlimit:10;" x1="-138.4" y1="275.4" x2="-135.9" y2="274.4"/>
<line id="XMLID_50_" style="fill:none;stroke:#FFFFFF;stroke-miterlimit:10;" x1="-132.1" y1="287" x2="-120.7" y2="316"/>
<polyline id="XMLID_17_" style="fill:none;stroke:#FFFFFF;stroke-width:2;stroke-miterlimit:10;" points="-65.7,362 -65.7,384 
	-126.3,384 -126.3,316 -65.7,316 -65.7,354.6 "/>
<g id="XMLID_62_">
	<path id="XMLID_59_" style="fill:none;stroke:#FFFFFF;stroke-width:2;stroke-miterlimit:10;" d="M-105.3,329c0,20,7.8,33,7.8,33
		h35.2c0,0-7.8-13-7.8-33H-105.3z"/>
	
		<line id="XMLID_60_" style="fill:none;stroke:#FFFFFF;stroke-width:2;stroke-miterlimit:10;" x1="-97.3" y1="338" x2="-75.3" y2="338"/>
	
		<line id="XMLID_61_" style="fill:none;stroke:#FFFFFF;stroke-width:2;stroke-miterlimit:10;" x1="-95.3" y1="346" x2="-74.3" y2="346"/>
	
		<line id="XMLID_58_" style="fill:none;stroke:#FFFFFF;stroke-width:2;stroke-miterlimit:10;" x1="-92.3" y1="354" x2="-72.3" y2="354"/>
</g>
<path id="XMLID_20_" style="fill:none;stroke:#FFFFFF;stroke-width:2;stroke-miterlimit:10;" d="M-28.7,363.9L-28.7,363.9
	c0-2.2,1.8-3.9,3.9-3.9l0,0c2.2,0,3.9,1.8,3.9,3.9l0,0"/>
<path id="XMLID_52_" style="fill:none;stroke:#FFFFFF;stroke-width:2;stroke-miterlimit:10;" d="M-28,363.9h6.6
	c7.2,0,13.1,5.9,13.1,13.1l0,0h-32.8l0,0C-41.1,369.8-35.2,363.9-28,363.9z"/>
<path id="XMLID_53_" style="fill:none;stroke:#FFFFFF;stroke-width:2;stroke-miterlimit:10;" d="M-41.1,377h32.8l0,0
	c0,3.2-2.6,5.8-5.8,5.8h-21.2C-38.5,382.8-41.1,380.2-41.1,377L-41.1,377z"/>
<path id="XMLID_13_" style="fill:none;stroke:#FFFFFF;stroke-width:2;stroke-miterlimit:10;" d="M7.1,384"/>
</svg>
